<svg width="128" height="128" viewBox="0 0 128 128" xmlns="http://www.w3.org/2000/svg">
  <defs>
    <linearGradient id="bgGradient" x1="0%" y1="0%" x2="100%" y2="100%">
      <stop offset="0%" style="stop-color:#4A90E2;stop-opacity:1" />
      <stop offset="100%" style="stop-color:#357ABD;stop-opacity:1" />
    </linearGradient>
    <linearGradient id="symbolGradient" x1="0%" y1="0%" x2="100%" y2="100%">
      <stop offset="0%" style="stop-color:#FFFFFF;stop-opacity:1" />
      <stop offset="100%" style="stop-color:#F0F8FF;stop-opacity:0.9" />
    </linearGradient>
  </defs>
  
  <!-- Background circle -->
  <circle cx="64" cy="64" r="60" fill="url(#bgGradient)" stroke="#2C5F8B" stroke-width="2"/>
  
  <!-- Central hexagon representing structure/language -->
  <polygon points="64,24 88,36 88,60 64,72 40,60 40,36" 
           fill="url(#symbolGradient)" 
           stroke="#2C5F8B" 
           stroke-width="2" 
           opacity="0.9"/>
  
  <!-- Inner connection lines representing language flow -->
  <line x1="52" y1="48" x2="76" y2="48" stroke="url(#symbolGradient)" stroke-width="3" opacity="0.8"/>
  <line x1="64" y1="36" x2="64" y2="60" stroke="url(#symbolGradient)" stroke-width="2" opacity="0.7"/>
  
  <!-- Smaller hexagons representing language elements -->
  <polygon points="64,84 76,90 76,102 64,108 52,102 52,90" 
           fill="url(#symbolGradient)" 
           opacity="0.8"/>
  
  <polygon points="32,64 44,70 44,82 32,88 20,82 20,70" 
           fill="url(#symbolGradient)" 
           opacity="0.8"/>
  
  <polygon points="96,64 108,70 108,82 96,88 84,82 84,70" 
           fill="url(#symbolGradient)" 
           opacity="0.8"/>
  
  <!-- Connection lines between elements -->
  <line x1="64" y1="72" x2="64" y2="84" stroke="url(#symbolGradient)" stroke-width="2" opacity="0.6"/>
  <line x1="52" y1="56" x2="32" y2="70" stroke="url(#symbolGradient)" stroke-width="2" opacity="0.6"/>
  <line x1="76" y1="56" x2="96" y2="70" stroke="url(#symbolGradient)" stroke-width="2" opacity="0.6"/>
  
  <!-- Central dot -->
  <circle cx="64" cy="48" r="3" fill="#FFFFFF"/>
</svg>
